# xmcd
#
# Track frame offsets:
#	150
#	12180
#	24492
#	43042
#	58650
#	76160
#
# Disc length: 1118 seconds
#
# Revision: 1
# Processed by: cddbd v1.5.2PL0 Copyright (c) Steve Scherf et al.
# Submitted via: audiograbber 1.83.01
#
DISCID=3d045c06
DTITLE=Loos 'n Boots - Loos 'n Bootlegs
DYEAR=1900
DGENRE=Pop
TTITLE0=Loos 'n Boots - The blind man
TTITLE1=Loos 'n Boots - Whisky in the jar
TTITLE2=Loos 'n Boots - Kingstone town
TTITLE3=Loos 'n Boots - Buona Sera
TTITLE4=Loos 'n Boots - Juffrouw Toos
TTITLE5=Loos 'n Boots - Great balls of fire
EXTD=
EXTT0=
EXTT1=
EXTT2=
EXTT3=
EXTT4=
EXTT5=
PLAYORDER=
